# xmcd
#
# Track frame offsets:
#	150
#	19112
#	32515
#	46660
#	58772
#	70432
#	84950
#	104742
#	124325
#	139507
#	160790
#
# Disc length: 2333 seconds
# Revision: 10
# Processed by: cddbd v1.5.2PL0 Copyright (c) Steve Scherf et al.
# Submitted via: dBpowerAMP V12.0
#
DISCID=8e091b0b
DTITLE=Jacques Brel - L'Intégrale Des Albums Originaux
DYEAR=1972
DGENRE=Chanson 
TTITLE0=Ne Me Quitte Pas
TTITLE1=Marieke
TTITLE2=On N'Oublie Rien
TTITLE3=Les Flamandes
TTITLE4=Les Prénoms De Paris
TTITLE5=Quand On N'A Que L'Amour
TTITLE6=Les Biches
TTITLE7=Le Prochain Amour
TTITLE8=Le Moribond
TTITLE9=La Valse À Mille Temps
TTITLE10=Je Ne Sais Pas
EXTD=
EXTT0=
EXTT1=
EXTT2=
EXTT3=
EXTT4=
EXTT5=
EXTT6=
EXTT7=
EXTT8=
EXTT9=
EXTT10=
PLAYORDER=
